<svg height="2500" width="1935" xmlns="http://www.w3.org/2000/svg" viewBox="0.8 -2.200000000000001 741.7 964.6000000000001"><linearGradient id="a" gradientTransform="matrix(63.267 -211.549 221.823 66.339 409.684 810.027)" gradientUnits="userSpaceOnUse" x2="1"><stop offset="0" stop-color="#ff9700"/><stop offset=".53" stop-color="#f48e00"/><stop offset="1" stop-color="#d06f00"/></linearGradient><g fill-rule="evenodd"><path d="M742.4 482.9c0-11.2-8.3-17.7-18.6-14.5L19.4 691C9.1 694.2.8 706 .8 717.2v227.5c0 11.2 8.3 17.7 18.6 14.5l704.4-222.6c10.3-3.2 18.6-15 18.6-26.2z" fill="url(#a)"/><g fill="#ff9800"><path d="M.8 475.7c0 11.2 8.3 23 18.6 26.3l704.5 222.5c10.3 3.3 18.6-3.2 18.6-14.5V482.6c0-11.3-8.3-23-18.6-26.3L19.4 233.8C9.1 230.5.8 237 .8 248.3z"/><path d="M742.4 15.6c0-11.3-8.3-17.8-18.6-14.5L19.4 223.6C9.1 226.8.8 238.6.8 249.8v227.5c0 11.2 8.3 17.7 18.6 14.5l704.4-222.6c10.3-3.2 18.6-15 18.6-26.2z"/></g></g></svg>