<svg xmlns="http://www.w3.org/2000/svg" version="1.1" xmlns:xlink="http://www.w3.org/1999/xlink" viewBox="0 0 200 200"><rect width="200" height="200" fill="url('#gradient')"></rect><defs><linearGradient id="gradient" gradientTransform="rotate(19 0.5 0.5)"><stop offset="0%" stop-color="#141514"></stop><stop offset="100%" stop-color="#3d3a42"></stop></linearGradient></defs><g><g fill="#eda622" transform="matrix(12.487804878048781,0,0,12.487804878048781,34.37768225190116,187.54123357447185)" stroke="#503a1d" stroke-width="0.1"><path d="M6.74-4.46L6.74-14.22L10.16-14.22L10.16-4.46Q10.16-3.11 9.53-2.04Q8.90-0.98 7.77-0.39Q6.64 0.20 5.25 0.20L5.25 0.20Q2.93 0.20 1.64-0.98Q0.35-2.15 0.35-4.30L0.35-4.30L3.79-4.30Q3.79-3.32 4.13-2.88Q4.46-2.44 5.25-2.44L5.25-2.44Q5.97-2.44 6.35-2.97Q6.74-3.51 6.74-4.46L6.74-4.46Z"></path></g></g></svg>